<svg xmlns="http://www.w3.org/2000/svg" xmlns:cc="http://web.resource.org/cc/" xmlns:svg="http://www.w3.org/2000/svg" xmlns:xlink="http://www.w3.org/1999/xlink" id="svg2270" width="14" height="14" version="1.0"><defs id="defs2272"><linearGradient id="linearGradient7029"><stop style="stop-color:#fff;stop-opacity:1" id="stop7031" offset="0"/><stop style="stop-color:#fff;stop-opacity:0" id="stop7033" offset="1"/></linearGradient><linearGradient id="linearGradient17794"><stop style="stop-color:#f18383;stop-opacity:1" id="stop17798" offset="0"/><stop id="stop8006" offset=".381" style="stop-color:#ed6767;stop-opacity:1"/><stop style="stop-color:#e62323;stop-opacity:1" id="stop17796" offset="1"/></linearGradient><linearGradient id="linearGradient24732" x1="472.422" x2="461.392" y1="436.796" y2="424.951" gradientUnits="userSpaceOnUse" xlink:href="#linearGradient17794"/><linearGradient id="linearGradient2438" x1="472.422" x2="461.392" y1="436.796" y2="424.951" gradientUnits="userSpaceOnUse" xlink:href="#linearGradient17794"/><radialGradient id="radialGradient6052" cx="466.736" cy="431.197" r="9.31" fx="466.736" fy="431.197" gradientTransform="matrix(1,0,0,1.0057859,0,-2.4948735)" gradientUnits="userSpaceOnUse" xlink:href="#linearGradient17794"/><linearGradient id="linearGradient7035" x1="6.75" x2="6.75" y1=".5" y2="12.5" gradientUnits="userSpaceOnUse" xlink:href="#linearGradient7029"/><linearGradient id="linearGradient2228" x1="6.75" x2="6.75" y1=".5" y2="12.5" gradientUnits="userSpaceOnUse" xlink:href="#linearGradient7029"/><radialGradient id="radialGradient2226" cx="466.736" cy="431.197" r="9.31" fx="466.736" fy="431.197" gradientTransform="matrix(1,0,0,1.0057859,0,-2.4948735)" gradientUnits="userSpaceOnUse" xlink:href="#linearGradient17794"/><linearGradient id="linearGradient2224" x1="472.422" x2="461.392" y1="436.796" y2="424.951" gradientUnits="userSpaceOnUse" xlink:href="#linearGradient17794"/><linearGradient id="linearGradient2222" x1="472.422" x2="461.392" y1="436.796" y2="424.951" gradientUnits="userSpaceOnUse" xlink:href="#linearGradient17794"/><linearGradient id="linearGradient2214"><stop id="stop2216" offset="0" style="stop-color:#f18383;stop-opacity:1"/><stop style="stop-color:#ed6767;stop-opacity:1" id="stop2218" offset=".381"/><stop id="stop2220" offset="1" style="stop-color:#e62323;stop-opacity:1"/></linearGradient><linearGradient id="linearGradient2208"><stop id="stop2210" offset="0" style="stop-color:#fff;stop-opacity:1"/><stop id="stop2212" offset="1" style="stop-color:#fff;stop-opacity:0"/></linearGradient><linearGradient id="linearGradient4173" x1="10.946" x2="10.981" y1="9.914" y2="10.609" gradientTransform="matrix(1.2661544,0,0,1.2608351,469.23729,510.59508)" gradientUnits="userSpaceOnUse" xlink:href="#linearGradient4128"/><linearGradient id="linearGradient4159" x1="5.953" x2="5.859" y1="6.609" y2="9.578" gradientTransform="matrix(1.2608351,0,0,1.2608351,475.7834,516.59183)" gradientUnits="userSpaceOnUse" xlink:href="#linearGradient4128"/><linearGradient id="linearGradient4156" x1="11" x2="11" y1="10" y2="11" gradientUnits="userSpaceOnUse" xlink:href="#linearGradient4128"/><linearGradient id="linearGradient4138" x1="472.351" x2="472.351" y1="519.114" y2="521.005" gradientTransform="matrix(1,0,0,1.0000093,10.421461,10.71221)" gradientUnits="userSpaceOnUse" xlink:href="#linearGradient4128"/><linearGradient id="linearGradient4134" x1="472.351" x2="472.351" y1="519.114" y2="521.005" gradientTransform="matrix(1,0,0,0.9687523,10.283691,16.9106)" gradientUnits="userSpaceOnUse" xlink:href="#linearGradient4128"/><linearGradient id="linearGradient2293" x1="472.422" x2="461.392" y1="436.796" y2="424.951" gradientUnits="userSpaceOnUse" xlink:href="#linearGradient17794"/><linearGradient id="linearGradient2291" x1="472.422" x2="461.392" y1="436.796" y2="424.951" gradientUnits="userSpaceOnUse" xlink:href="#linearGradient17794"/><linearGradient id="linearGradient2285"><stop id="stop2287" offset="0" style="stop-color:#c80000;stop-opacity:1"/><stop id="stop2289" offset="1" style="stop-color:#ffa0a0;stop-opacity:1"/></linearGradient><linearGradient id="linearGradient25826" x1="472.422" x2="461.392" y1="436.796" y2="424.951" gradientUnits="userSpaceOnUse" xlink:href="#linearGradient17794"/><linearGradient id="linearGradient4128"><stop id="stop4130" offset="0" style="stop-color:#fff;stop-opacity:.78431374"/><stop id="stop4132" offset="1" style="stop-color:#fff;stop-opacity:.23529412"/></linearGradient><linearGradient id="linearGradient2378" x1="10.946" x2="10.981" y1="9.914" y2="10.609" gradientTransform="matrix(1.2661544,0,0,1.2608351,469.23729,510.59508)" gradientUnits="userSpaceOnUse" xlink:href="#linearGradient4128"/><linearGradient id="linearGradient2376" x1="10.968" x2="11.025" y1="9.689" y2="11.147" gradientUnits="userSpaceOnUse" xlink:href="#linearGradient4128"/><linearGradient id="linearGradient2374" x1="5.953" x2="5.859" y1="6.609" y2="9.578" gradientTransform="matrix(1.2608351,0,0,1.2608351,475.7834,516.59183)" gradientUnits="userSpaceOnUse" xlink:href="#linearGradient4128"/><linearGradient id="linearGradient2372" x1="11" x2="11" y1="10" y2="11" gradientUnits="userSpaceOnUse" xlink:href="#linearGradient4128"/><linearGradient id="linearGradient2370" x1="472.351" x2="472.351" y1="519.114" y2="521.005" gradientTransform="matrix(1,0,0,0.6666648,10.303108,184.09099)" gradientUnits="userSpaceOnUse" xlink:href="#linearGradient4128"/><linearGradient id="linearGradient2368" x1="472.351" x2="472.351" y1="519.114" y2="521.005" gradientTransform="matrix(1,0,0,0.6666648,10.342666,173.98441)" gradientUnits="userSpaceOnUse" xlink:href="#linearGradient4128"/><linearGradient id="linearGradient2366" x1="472.351" x2="472.351" y1="519.114" y2="521.005" gradientTransform="matrix(1,0,0,1.0000093,10.421461,10.71221)" gradientUnits="userSpaceOnUse" xlink:href="#linearGradient4128"/><linearGradient id="linearGradient2364" x1="472.351" x2="472.351" y1="519.114" y2="521.005" gradientTransform="matrix(1,0,0,0.9687523,10.283691,16.9106)" gradientUnits="userSpaceOnUse" xlink:href="#linearGradient4128"/><linearGradient id="linearGradient2362" x1="472.422" x2="461.392" y1="436.796" y2="424.951" gradientUnits="userSpaceOnUse" xlink:href="#linearGradient17794"/><linearGradient id="linearGradient2360" x1="472.422" x2="461.392" y1="436.796" y2="424.951" gradientUnits="userSpaceOnUse" xlink:href="#linearGradient17794"/><linearGradient id="linearGradient2354"><stop id="stop2356" offset="0" style="stop-color:#c80000;stop-opacity:1"/><stop id="stop2358" offset="1" style="stop-color:#ffa0a0;stop-opacity:1"/></linearGradient><linearGradient id="linearGradient2352" x1="472.422" x2="461.392" y1="436.796" y2="424.951" gradientUnits="userSpaceOnUse" xlink:href="#linearGradient17794"/><linearGradient id="linearGradient2346"><stop id="stop2348" offset="0" style="stop-color:#fff;stop-opacity:.78431374"/><stop id="stop2350" offset="1" style="stop-color:#fff;stop-opacity:.23529412"/></linearGradient><linearGradient id="linearGradient2392" x1="472.351" x2="472.351" y1="519.114" y2="521.005" gradientTransform="matrix(1,0,0,0.6666648,10.342666,173.98441)" gradientUnits="userSpaceOnUse" xlink:href="#linearGradient4128"/><linearGradient id="linearGradient2394" x1="472.351" x2="472.351" y1="519.114" y2="521.005" gradientTransform="matrix(1,0,0,0.6666648,10.303108,184.09099)" gradientUnits="userSpaceOnUse" xlink:href="#linearGradient4128"/><linearGradient id="linearGradient2396" x1="10.968" x2="11.025" y1="9.689" y2="11.147" gradientUnits="userSpaceOnUse" xlink:href="#linearGradient4128"/></defs><metadata id="metadata2275"/><g id="layer1"><g id="g25843" transform="matrix(0.7931251,0,0,0.7931251,-372.13374,-408.22195)"><path style="fill:url(#radialGradient6052);fill-opacity:1;stroke:#c80000;stroke-width:1.43637741;stroke-miterlimit:4;stroke-dasharray:none;stroke-opacity:1" id="path22737" d="M 475.32704 431.19708 A 8.5913839 8.6452484 0 1 1 458.14427,431.19708 A 8.5913839 8.6452484 0 1 1 475.32704 431.19708 z" transform="matrix(0.8805346,0,0,0.8750503,66.41784,145.57686)"/><path style="opacity:1;fill:url(#linearGradient7035);fill-opacity:1;stroke:none;stroke-width:1;stroke-miterlimit:4;stroke-dasharray:none;stroke-opacity:1" id="path6058" d="M 12.5 6.5 A 5.75 6 0 1 1 1,6.5 A 5.75 6 0 1 1 12.5 6.5 z" transform="matrix(0.9867408,0,0,0.6304178,470.73423,515.01579)"/><g id="g2380" transform="matrix(1.2608365,0,0,1.2633098,469.19929,514.69071)"><g id="g2382" transform="matrix(0.7931251,0,0,0.7931251,-372.13374,-408.22195)"><path style="fill:#7f7f8c;fill-opacity:1;fill-rule:evenodd;stroke:none;stroke-width:1px;stroke-linecap:butt;stroke-linejoin:miter;stroke-opacity:1" id="path2442" d="M 481.17723,524.15684 C 481.17723,524.15684 482.11277,524.68766 483.0584,524.68766 C 484.00403,524.68766 484.95974,524.15684 484.95974,524.15684 L 483.4493,526.03249 L 483.4493,527.83201 L 484.8944,528.56151 L 484.95974,531.09144 L 481.17723,531.09144 L 481.16963,528.69627 L 482.71594,527.80266 L 482.72456,526.04216 L 481.17723,524.15684 z"/><path style="opacity:.2;fill:#7f7f7f;fill-opacity:1;fill-rule:evenodd;stroke:none;stroke-width:1px;stroke-linecap:butt;stroke-linejoin:miter;stroke-opacity:1" id="path2444" d="M 481.17723,521.00476 L 481.17723,523.52643 L 482.43807,526.0481 L 481.17723,528.56977 L 481.17723,531.72186 L 484.95974,531.72186 L 484.95974,528.56977 L 483.6989,526.0481 L 484.95974,523.52643 L 484.95974,521.00476 L 481.17723,521.00476 z"/><path id="path2174" d="M 480.54682,520.37434 L 480.54681,523.52643 L 481.80765,526.0481 L 480.54681,528.56977 L 480.54682,531.72185 L 485.59016,531.72185 L 485.59015,528.56977 L 484.32932,526.0481 L 485.59015,523.52643 L 485.59016,520.37434 L 480.54682,520.37434 z M 481.80766,521.63517 L 484.32932,521.63517 L 484.32932,523.52643 L 483.46249,526.0481 L 484.32932,528.56977 L 484.32932,530.46102 L 481.80766,530.46102 L 481.80765,528.56977 L 482.72372,526.0481 L 481.80765,523.52643 L 481.80766,521.63517 z" style="fill:#000;fill-opacity:1;fill-rule:evenodd;stroke:none;stroke-width:1px;stroke-linecap:butt;stroke-linejoin:miter;stroke-opacity:1"/><rect id="rect2172" width="7.565" height="2.522" x="479.286" y="519.744" ry="1.261" style="opacity:1;fill:#7f2aff;fill-opacity:1;stroke:none;stroke-width:1;stroke-miterlimit:4;stroke-dasharray:none;stroke-opacity:1"/><rect id="rect2170" width="7.565" height="2.522" x="479.286" y="529.831" ry="1.261" style="opacity:1;fill:#60f;fill-opacity:1;stroke:none;stroke-width:1;stroke-miterlimit:4;stroke-dasharray:none;stroke-opacity:1"/><rect id="rect4140" width="5.674" height="1.261" x="480.173" y="520.059" ry=".63" style="opacity:1;fill:url(#linearGradient2392);fill-opacity:1;stroke:none;stroke-width:1;stroke-miterlimit:4;stroke-dasharray:none;stroke-opacity:1"/><rect id="rect4144" width="5.674" height="1.261" x="480.133" y="530.166" ry=".63" style="opacity:1;fill:url(#linearGradient2394);fill-opacity:1;stroke:none;stroke-width:1;stroke-miterlimit:4;stroke-dasharray:none;stroke-opacity:1"/><path id="path4161" d="M 11.007811,9.9179701 C 10.386665,9.9257826 9.6414144,10.484263 9.5594939,10.992187 C 9.5017174,11.350414 12.494284,11.43273 12.441847,10.914063 C 12.40754,10.574731 11.628908,9.9101582 11.007811,9.9179701 z" transform="matrix(1.2608351,0,0,1.2608351,469.1993,514.70058)" style="fill:url(#linearGradient2396);fill-opacity:1;fill-rule:evenodd;stroke:none;stroke-width:1px;stroke-linecap:butt;stroke-linejoin:miter;stroke-opacity:1"/></g></g></g></g></svg>